<?xml version="1.0" encoding="UTF-8" standalone="no"?>
<!-- Generator: Adobe Illustrator 13.0.0, SVG Export Plug-In . SVG Version: 6.00 Build 14948)  -->

<svg
   xmlns:i="&amp;ns_ai;"
   xmlns:dc="http://purl.org/dc/elements/1.1/"
   xmlns:cc="http://creativecommons.org/ns#"
   xmlns:rdf="http://www.w3.org/1999/02/22-rdf-syntax-ns#"
   xmlns:svg="http://www.w3.org/2000/svg"
   xmlns="http://www.w3.org/2000/svg"
   xmlns:xlink="http://www.w3.org/1999/xlink"
   xmlns:sodipodi="http://sodipodi.sourceforge.net/DTD/sodipodi-0.dtd"
   xmlns:inkscape="http://www.inkscape.org/namespaces/inkscape"
   version="1.1"
   x="0px"
   y="0px"
   width="1181px"
   height="731px"
   viewBox="0 0 1181 731"
   enable-background="new 0 0 1181 731"
   xml:space="preserve"
   id="svg2"
   inkscape:version="0.48.4 r9939"
   sodipodi:docname="United_States.svg">
<path
             id="Wyoming"
             d="m 305.2,256.6 0.3,-1.6 0.2,-1.601 0.7,-3.899 0.601,-4 0.6,-3.9 0.7,-3.899 0.6,-4 0.601,-3.9 0.6,-4 0.7,-3.9 0.6,-3.899 0.601,-4 0.6,-3.9 0.7,-4 0.6,-3.899 0.601,-4 0.6,-3.9 0.7,-3.9 0.1,-0.8 0.101,-0.8 0.1,-0.7 0.2,-0.8 0.1,-0.8 0.101,-0.7 0.1,-0.8 0.101,-0.8 0.199,-0.7 0.101,-0.8 0.1,-0.801 0.101,-0.699 0.199,-0.801 0.101,-0.8 0.1,-0.7 0.101,-0.8 0.1,-0.399 0.9,0.1 2,0.3 1.899,0.3 2,0.301 1.9,0.3 2,0.3 1.899,0.3 2,0.3 2,0.301 1.9,0.3 2,0.3 1.9,0.3 2,0.3 1.899,0.301 2,0.199 2,0.301 1.9,0.3 2,0.3 1.899,0.2 2,0.3 2,0.3 1.9,0.2 2,0.3 2,0.3 1.9,0.2 2,0.3 1.899,0.2 2,0.3 2,0.2 1.9,0.3 2,0.2 2,0.3 1.899,0.2 2,0.2 2,0.3 1.9,0.2 2,0.2 2,0.3 1.899,0.2 2,0.2 2,0.199 1.9,0.301 2,0.199 2,0.2 1.9,0.2 2,0.2 2,0.2 1.899,0.199 2,0.2 2,0.2 1.9,0.2 2,0.2 2,0.199 2,0.2 1.899,0.2 2,0.2 2,0.2 1.9,0.199 2,0.101 2,0.2 2,0.199 1.9,0.2 2,0.2 2,0.1 1.899,0.2 -0.2,3.2 -0.3,3.2 -0.2,3.1 -0.3,3.2 -0.3,3.2 -0.2,3.2 -0.3,3.199 -0.2,3.2 -0.3,3.2 -0.3,3.1 -0.2,3.2 -0.3,3.2 -0.2,3.2 -0.3,3.2 -0.2,3.199 -0.3,3.101 -0.3,3.2 -0.2,3.199 -0.3,3.2 -0.2,3.2 -0.3,3.2 -0.301,3.2 -0.199,3.1 -0.301,3.2 -0.3,3.2 -0.2,3.199 -0.3,3.2 -0.2,3.2 -0.3,3.2 -0.3,3.2 -0.2,3.1 -0.3,3.2 -3,-0.2 -3,-0.3 -3,-0.3 -3,-0.2 -3,-0.3 -3.1,-0.301 -3,-0.3 -3,-0.3 -3,-0.3 -3,-0.3 -3,-0.3 -3,-0.301 -3,-0.3 -3,-0.3 -3,-0.3 -3,-0.4 -3.098,-0.297 -3,-0.4 -3,-0.3 -3,-0.399 -3,-0.301 -3,-0.399 -3,-0.3 -3,-0.4 -3,-0.4 -3,-0.399 -3,-0.4 -3,-0.3 -3,-0.399 -3,-0.4 -3,-0.4 -3,-0.5 -2.399,-0.3 -2.4,-0.3 -2.399,-0.4 -2.302,-0.303 -2.399,-0.3 -2.4,-0.4 -2.399,-0.3 -2.4,-0.399 -2.4,-0.301 -2.399,-0.399 -2.3,-0.4 -2.4,-0.3 -2.4,-0.4 -2.399,-0.399 -2.4,-0.3 -2.399,-0.4 0.3,-1.6 0.2,-1.601 0.3,-1.6 0.2,-1.5 0.3,-1.601 0.2,-1.6 0.3,-1.6 0.2,-1.5 0.3,-1.601 0.2,-1.6 0.3,-1.601 0.2,-1.6 0.3,-1.5 0.195,-1.598 0,0 z"
             inkscape:connector-curvature="0"
             style="fill:#fdfcea" />
<path
             id="West_Virginia"
             d="m 887.9,287.2 0.7,-0.801 0.3,-0.1 v 0.1 l 0.4,2 0.3,2 0.3,2.101 0.4,2 0.3,2 0.3,2 0.4,2.1 0.3,2 0.3,1.7 0.3,1.8 0.3,1.8 0.2,1.7 2.601,-0.399 2.5,-0.4 2.5,-0.4 2.5,-0.5 2.5,-0.399 2.6,-0.4 2.5,-0.5 2.5,-0.399 2,12.899 0.1,0.101 h 0.101 l 0.1,-0.2 0.3,-0.2 1.801,-2.3 0.1,-0.101 0.8,-0.3 0.2,-0.1 V 315.9 l 0.2,-0.6 0.1,-0.2 0.2,-0.3 0.4,-0.5 0.8,-0.7 0.1,-0.1 0.101,-0.101 0.199,-0.3 0.301,-0.399 v -0.1 l 0.1,-0.1 v -0.1 l 0.1,-0.1 0.101,-0.7 v -0.1 l 0.1,-0.101 0.1,-0.1 0.601,-0.5 0.2,-0.1 h 0.199 l 0.301,0.1 0.399,0.1 0.4,0.301 0.2,0.1 h 0.199 0.101 l 0.2,-0.2 0.1,-0.1 0.1,-0.101 0.101,-0.3 1,-1.399 0.2,-0.4 0.1,-0.4 v -0.1 l 0.1,-0.1 0.101,-0.101 0.1,-0.1 0.4,-0.101 0.1,-0.1 v -0.101 l -0.1,-0.199 -0.107,-0.098 v -0.1 -0.101 l 0.1,-0.199 0.199,-0.5 0.101,-0.2 v -0.2 -0.1 l 0.1,-0.101 h 0.101 l 0.199,0.101 0.101,0.1 0.2,0.1 0.199,0.101 0.101,0.1 v 0.101 H 927.6 l -0.199,0.199 v 0.101 0.1 0.098 0.1 l 0.199,0.2 h 0.101 l 0.8,0.3 0.3,0.1 0.101,0.101 0.1,0.1 h 0.5 1.7 v -0.1 l 0.6,-0.3 1.4,-0.101 0.5,-0.6 0.1,-0.2 -0.1,-0.1 -0.4,-0.101 V 306 l 0.3,-0.101 0.301,-0.1 0.3,-0.101 -0.703,-0.698 0.2,-0.2 h 0.1 0.4 l 0.2,-0.101 0.399,-0.3 0.4,-0.2 h 0.8 0.4 l 0.1,-0.199 0.3,-0.5 0.2,-0.2 0.4,-0.8 0.1,-0.2 0.2,-0.101 0.2,-0.1 1,-0.1 1,0.399 1.8,1.2 0.399,0.2 0.5,0.1 0.4,-0.1 0.2,-0.2 0.2,-0.1 h 0.6 l 0.1,-0.101 0.101,-0.2 0.2,-0.1 h 0.3 l 0.2,0.1 0.3,0.301 v 0.399 l -0.3,0.4 -0.4,0.2 0.1,0.199 0.5,0.9 h 0.101 v -0.2 l 0.1,-0.3 0.1,-0.2 h 0.2 l 0.101,0.3 v 0.2 l -0.101,0.101 v 0.199 l 0.3,0.2 h 0.301 l 0.3,-0.2 0.399,-0.1 v 0.2 l -0.199,0.1 -0.101,0.3 v 0.2 l 0.2,0.3 -0.4,0.4 0.301,0.2 1,0.2 0.3,0.399 -0.101,0.5 v 0.5 l 0.101,0.5 0.399,0.4 v 0.1 l -0.1,0.3 -0.2,1.101 -0.2,0.899 -0.199,1.2 -0.2,0.8 -0.101,0.301 -0.1,0.399 -0.1,-0.2 -0.3,-0.1 -1.2,-0.7 -1.3,-0.6 -1.301,-0.7 -1.199,-0.7 -1.301,-0.7 -1.3,-0.7 -1.2,-0.699 -1.3,-0.7 -0.3,-0.101 -0.3,0.101 -0.2,0.5 v 0.3 0.2 0.3 l 0.3,0.7 v 0.3 l 0.101,0.3 -0.1,0.104 v 0.3 l -0.2,0.5 -0.399,1 -0.101,0.1 v 0.101 0.199 0.101 l 0.101,0.1 v 0.101 l 0.1,0.3 v 0.1 0.101 0.5 l -0.1,0.1 v 0.2 l 0.1,0.1 v 0.101 l 0.2,0.399 v 0.101 0.1 0.1 l -0.1,0.2 -0.4,0.9 -0.7,0.8 -0.6,1 -0.2,0.6 v 0.101 0.1 0.101 0.1 0.101 0.199 l -0.4,0.801 -0.1,0.1 -0.2,0.1 -0.3,0.2 -0.201,0.093 -0.1,0.1 -0.101,0.1 -0.1,0.2 -0.1,0.5 -0.101,0.3 -0.1,0.101 -0.101,0.1 -0.399,0.3 -0.2,0.101 h -0.1 -0.098 l -0.1,-0.101 h -0.101 v -0.1 l -0.1,-0.1 h -0.1 -0.099 l -0.1,0.1 -0.3,0.7 -0.5,1 -0.5,1.2 -0.4,0.899 -0.1,0.2 -0.101,0.1 h -0.1 l -0.8,-0.399 -0.9,-0.4 -0.7,-0.3 h -0.1 l -0.1,0.1 -0.601,1.2 -0.1,0.3 -0.1,0.2 v 0.2 0.1 0.2 L 925,329.5 l -0.1,0.199 v 0.101 l 0.1,1.5 v 0.1 l -0.1,0.101 -0.1,0.2 -0.3,0.199 -0.199,0.2 -0.101,0.2 -0.2,0.4 v 0.199 0.101 l -0.1,0.899 v 0.101 0.1 0.101 l -0.1,0.899 -0.101,0.3 -0.1,0.2 -0.3,0.601 -0.3,0.699 -0.5,1.101 -0.101,0.1 -0.1,0.101 h -0.2 l -1.3,-0.2 -1,-0.101 -1,-0.199 -1,-0.101 v -0.1 -0.101 -0.2 -0.1 -0.1 l -0.098,-0.1 -1,-1.199 -0.1,-0.101 v -0.1 h -0.1 l -1.7,-0.3 h -0.2 l -0.1,0.1 v 0.2 l -0.1,0.5 v 0.2 0.199 l 0.101,0.2 v 0.101 0.199 l -0.101,0.2 -0.3,0.601 v 0.399 l 0.2,1 v 0.2 l -0.1,0.2 -0.2,0.399 -0.1,0.302 -0.1,0.8 v 0.1 l -0.2,0.2 -0.399,0.2 v 0.1 l -0.101,0.1 v 0.3 l -0.1,0.2 -0.101,0.3 -0.1,0.2 v 0.3 0.1 l 0.2,0.2 v 0.1 0.2 0.101 0.199 l -0.3,0.4 -0.4,0.4 -0.2,0.199 -0.3,0.601 -0.8,1 v 0.2 0.1 0.2 l 0.1,0.2 v 0.2 l -0.2,1.5 -0.3,1 -0.5,1.399 -0.5,0.8 -0.8,1.4 -0.7,1.2 -0.6,0.899 -0.7,1.101 v 0.1 l -0.1,0.601 v 0.199 l -0.4,1.101 -0.5,1.5 v 0.3 0.1 l 0.1,0.101 0.301,0.2 0.199,0.1 0.601,0.2 0.1,0.1 0.101,0.101 0.1,0.199 v 0.2 l -0.1,0.101 -0.101,0.198 -0.399,0.301 -0.301,0.3 -0.1,0.1 -0.2,0.101 -0.1,0.3 -0.101,0.1 v 0.2 0.1 0.2 H 906 l 0.1,0.101 0.3,0.1 0.101,0.1 v 0.301 L 906.4,364.6 v 0.101 l -2.199,1.8 -0.5,0.6 -0.101,0.099 -0.1,0.1 h -0.1 -0.199 L 903.1,367.2 903,367.099 902.9,367 v -0.2 -0.2 l -0.1,-0.1 v -0.1 h -0.1 l -0.2,-0.101 -0.1,0.101 -0.5,0.1 -0.4,0.2 -0.8,0.5 -0.9,0.7 -0.8,0.699 -0.8,0.601 -0.101,0.1 -0.199,0.101 -0.101,-0.101 h -0.1 v -0.1 l -0.099,-0.1 h -0.1 l -0.1,-0.1 h -0.4 -0.1 v -0.1 -0.2 l -0.101,-0.101 h -0.1 l -0.6,-0.1 -0.2,0.1 h -0.2 l -0.2,0.2 -0.2,0.101 -0.1,0.1 v 0.1 0.2 l -0.1,0.101 v 0.2 l 0.1,0.1 v 0.1 l 0.4,0.5 0.1,0.2 v 0.101 l -0.1,0.3 -0.101,0.2 -0.1,0.1 -1.2,1 -0.1,0.1 h -0.2 l -0.3,-0.199 h -0.101 -0.2 l -0.5,0.399 -0.199,0.101 -2,0.6 -1.5,1.1 -0.2,0.101 -0.101,-0.101 -0.1,-0.1 -0.1,-0.1 -0.096,-0.103 -0.1,-0.1 -0.1,-0.101 -1.2,-0.5 -0.101,-0.1 -0.1,-0.1 -0.5,-0.5 -0.1,-0.101 h -0.101 -0.2 -0.3 l -0.1,0.101 -0.1,0.199 v 0.101 l -0.101,0.399 -0.1,0.2 -0.101,0.2 -0.199,0.3 -0.101,0.2 -0.1,0.1 -0.8,0.2 -0.301,0.101 -0.199,0.199 -0.101,0.101 -0.8,1.3 -0.2,0.1 -0.1,0.101 -0.5,0.1 h -1.2 -0.3 l -0.5,-0.3 -0.8,-0.2 -0.101,-0.1 -0.2,-0.2 -0.3,-0.3 -0.1,-0.101 -0.1,-0.1 -0.101,-0.1 h -0.2 -0.1 -0.5 -0.3 -0.2 -0.1 l -0.293,-0.099 -0.199,-0.1 v -0.1 l -0.101,-0.1 -0.3,-0.5 -0.1,-0.1 -0.2,-0.2 -1.1,-0.5 -0.101,-0.101 -0.1,-0.1 v -0.1 L 874.101,373 v -0.2 -0.6 -0.1 -0.199 l -0.1,-0.101 v -0.1 l -0.1,-0.101 -0.101,-0.1 -0.1,-0.1 -0.8,-0.301 V 371 l -0.101,-0.1 v -0.1 -0.1 l 0.101,-0.101 0.399,-0.5 V 370 v -0.1 -0.1 -0.1 -0.2 l -0.1,-0.1 -0.1,-0.101 -0.2,-0.1 -0.4,-0.2 h -0.2 l -0.6,0.3 h -0.2 l -1.7,-0.3 -0.3,-0.1 -0.1,-0.101 v -0.2 l -0.101,-0.1 v -0.2 l -0.1,-0.1 V 368.1 l -0.2,-0.1 -0.7,-0.5 h -0.199 -0.101 l -0.1,0.1 -0.5,-0.5 -0.2,-0.2 -0.2,-0.1 h -0.1 l -0.8,-0.2 -0.2,-0.1 -0.101,-0.101 -0.195,-0.399 -0.4,-0.8 v -0.1 l -0.1,-0.2 -0.101,-0.199 -0.3,-0.301 -1.5,-1.1 -0.1,-0.1 V 363 l -0.101,-0.2 -0.199,-0.8 -0.101,-0.2 -0.1,-0.1 -0.2,-0.301 -0.1,-0.1 -0.101,-0.1 -0.899,-0.5 -0.101,-0.101 -0.1,-0.1 V 360.4 l 0.2,-0.399 0.1,-0.101 v -0.1 l -0.1,-0.2 -0.101,-0.1 -0.1,-0.2 -0.101,-0.1 -1.199,-0.801 -0.2,-0.1 -0.101,-0.3 -0.199,-0.3 -0.101,-0.2 -1.8,-1.9 -0.1,-0.2 -0.101,-0.199 v -0.1 -0.1 h 0.101 v -0.1 l 0.3,-0.3 0.2,-0.2 v -0.1 -0.1 -0.2 l -0.101,-0.4 v -0.1 l 0.101,-0.101 v -0.1 l 0.1,-0.101 h 0.2 l 0.1,-0.1 V 353 v -0.1 -0.2 -0.1 l -0.1,-0.3 v -0.601 -0.3 -0.2 l -0.2,-0.3 -0.4,-0.8 -0.1,-0.1 v -0.099 -0.1 l -0.1,-0.7 v -0.3 -0.101 l 0.8,0.2 0.8,-0.2 1.6,-0.8 1.5,-0.399 0.301,-0.101 0.199,-0.5 0.101,-0.5 0.1,-2.3 0.101,-0.6 0.3,-0.2 h 0.899 l 0.5,-0.2 0.2,-0.4 v -0.3 l -0.1,-0.3 -0.101,-0.3 -0.3,-0.5 v -0.2 l 0.101,-0.4 -0.2,-0.6 -0.2,-0.4 -0.2,-0.3 -0.2,-0.5 v -0.6 l 0.2,-0.3 0.4,-0.3 0.1,-0.601 0.2,-0.5 0.1,-0.3 v -1 l 0.2,-0.9 0.4,-1 0.5,-1 0.6,-0.6 h 0.4 l 0.399,0.2 0.4,0.2 0.6,0.199 0.301,0.2 0.3,0.4 0.1,0.399 0.101,0.101 0.1,0.2 v 0.1 0.2 l -0.1,0.1 h -0.101 v 0.101 0.3 l -0.1,0.2 v 0.1 l 0.2,0.3 0.399,0.101 0.3,-0.301 0.4,-0.399 0.2,-0.4 v -0.7 l 0.1,-0.3 0.2,-0.1 h 0.2 l 0.4,0.3 0.199,0.1 0.4,-0.199 v -0.3 l -0.3,-0.3 -0.2,-0.399 v -1 l -0.1,-0.4 -0.301,-0.2 h -0.1 l -0.2,-0.1 -0.1,-0.2 -0.1,-0.1 -0.2,-0.301 v -0.1 h 0.1 l 0.9,-0.6 0.2,-0.301 -0.101,-0.5 -0.2,-1 v -0.3 l 0.101,-0.399 0.8,-1.301 0.1,-0.899 0.4,-0.101 0.5,-0.1 0.4,-0.2 0.199,0.101 0.101,-0.101 0.1,-0.1 h 0.1 l 0.2,0.1 0.2,-0.3 v -1 l 0.1,-0.5 1.2,-1.6 0.3,-0.2 0.801,-0.2 0.199,0.2 0.301,0.399 0.3,0.5 0.399,0.2 0.5,-0.1 0.601,-0.8 0.3,-0.2 0.4,-0.101 0.5,-0.199 0.3,-0.2 0.3,-0.3 0.4,-0.7 0.3,-0.3 0.8,-0.4 0.2,-0.5 0.3,-0.9 0.5,-0.8 1.9,-2 1.199,-1 v -0.3 l 0.101,-0.7 v -0.2 -0.198 -0.1 -0.2 l 0.3,-0.3 v -0.5 l -0.1,-0.3 -0.2,-0.3 -0.4,-0.3 -0.2,-0.2 0.2,-0.3 0.3,-0.301 0.101,-0.3 v -0.5 -0.3 l 0.1,-0.3 0.1,-0.2 0.301,-0.5 v -0.3 l -0.101,-0.2 -0.2,-0.3 -0.1,-0.2 v -0.4 h 0.3 l 0.2,0.101 0.3,-0.101 0.101,-0.3 -0.101,-0.2 -0.1,-0.199 -0.1,-0.2 0.1,-0.4 0.1,-0.399 0.101,-0.301 v -0.6 l -0.2,-1.1 v -0.5 l 0.1,-0.601 0.3,-1 0.101,-0.399 v -1 l 0.1,-0.601 0.2,-1 0.1,-0.3 0.5,-0.5 0.101,-0.1 v -0.9 l 0.1,-0.1 -0.1,-0.4 -0.2,-0.5 v -0.1 -0.299 l -0.1,-0.1 -0.101,-0.1 h -0.1 -0.2 l -0.1,-0.601 0.3,-1.1 V 290.9 l -0.2,-0.3 -0.2,-0.399 -0.6,-0.801 -0.7,-0.8 -0.3,-0.399 0.2,-0.5 0.3,-0.301 0.399,-0.3 0.5,-0.1 0.4,0.2 h 0.002 z"
             inkscape:connector-curvature="0"
             style="fill:#fdfcea" />

</svg>
