<?xml version="1.0" encoding="UTF-8" standalone="no"?>
<!-- Created with Inkscape (http://www.inkscape.org/) -->

<svg
   xmlns:osb="http://www.openswatchbook.org/uri/2009/osb"
   xmlns:dc="http://purl.org/dc/elements/1.1/"
   xmlns:cc="http://creativecommons.org/ns#"
   xmlns:rdf="http://www.w3.org/1999/02/22-rdf-syntax-ns#"
   xmlns:svg="http://www.w3.org/2000/svg"
   xmlns="http://www.w3.org/2000/svg"
   xmlns:sodipodi="http://sodipodi.sourceforge.net/DTD/sodipodi-0.dtd"
   xmlns:inkscape="http://www.inkscape.org/namespaces/inkscape"
   width="744.09448819"
   height="1052.3622047"
   id="svg3279"
   version="1.1"
   inkscape:version="0.48.4 r9939"
   sodipodi:docname="New document 6">
  <defs
     id="defs3281">
    <linearGradient
       id="linearGradient5769"
       osb:paint="solid">
      <stop
         style="stop-color:#008000;stop-opacity:1;"
         offset="0"
         id="stop5771" />
    </linearGradient>
  </defs>
  <sodipodi:namedview
     id="base"
     pagecolor="#ffffff"
     bordercolor="#666666"
     borderopacity="1.0"
     inkscape:pageopacity="0.0"
     inkscape:pageshadow="2"
     inkscape:zoom="0.35"
     inkscape:cx="347.93805"
     inkscape:cy="496.31822"
     inkscape:document-units="px"
     inkscape:current-layer="layer1"
     showgrid="false"
     inkscape:window-width="1280"
     inkscape:window-height="748"
     inkscape:window-x="0"
     inkscape:window-y="27"
     inkscape:window-maximized="1" />
  <metadata
     id="metadata3284">
    <rdf:RDF>
      <cc:Work
         rdf:about="">
        <dc:format>image/svg+xml</dc:format>
        <dc:type
           rdf:resource="http://purl.org/dc/dcmitype/StillImage" />
        <dc:title></dc:title>
      </cc:Work>
    </rdf:RDF>
  </metadata>
  <g
     inkscape:label="Layer 1"
     inkscape:groupmode="layer"
     id="layer1">
    <path
       style="fill:#ff0000;fill-opacity:1;stroke:#000000;stroke-opacity:1;stroke-width:1.7;stroke-miterlimit:4;stroke-dasharray:none"
       d="m 554.98812,1009.906 c -2.46312,-1.7345 -5.03495,-2.5218 -8.75207,-2.6794 -3.61364,-0.1532 -6.27848,-0.9424 -8.5,-2.5174 -1.77983,-1.2619 -4.2285,-2.4433 -5.4415,-2.6254 -1.213,-0.1821 -3.04844,-1.0939 -4.07874,-2.0263 -1.03031,-0.93243 -2.73786,-1.70221 -3.79455,-1.71063 -3.21442,-0.0256 -5.21707,-2.5999 -6.98961,-8.98469 -0.38172,-1.375 -1.63708,-3.83782 -2.78968,-5.47292 -1.1526,-1.63511 -1.96234,-3.99008 -1.79943,-5.23325 0.16291,-1.24318 -0.0383,-2.80159 -0.44718,-3.46314 -0.40886,-0.66154 -0.77757,-2.75484 -0.81937,-4.65176 -0.0503,-2.28459 -0.72156,-3.82537 -1.98824,-4.56394 -3.31758,-1.9344 -5.23726,-4.19414 -7.6257,-8.97653 -1.27503,-2.553 -3.32399,-5.30082 -4.55325,-6.10626 -1.22925,-0.80544 -2.55112,-2.90368 -2.93748,-4.66277 -0.38636,-1.75908 -1.78008,-5.22504 -3.09716,-7.70213 -1.31708,-2.47709 -2.93727,-6.31475 -3.60042,-8.52814 -1.4154,-4.72421 -16.64282,-20.68036 -20.12769,-21.09094 -6.00087,-0.70702 -11.43891,-1.7834 -13.98841,-2.76879 -1.81601,-0.70189 -3.07983,-0.74795 -3.5,-0.12754 -0.3617,0.53408 -2.23264,1.39471 -4.15764,1.91251 -2.90473,0.78134 -3.95493,1.87501 -6.17481,6.43039 -1.47114,3.01891 -2.51625,5.64748 -2.32247,5.84126 0.65021,0.65021 -6.24944,6.16395 -7.71329,6.16395 -1.33603,0 -10.64986,-5.59196 -11.78943,-7.07829 -0.275,-0.35868 -1.56555,-0.98496 -2.8679,-1.39174 -1.30234,-0.40677 -4.94807,-3.29583 -8.10161,-6.42013 -5.85462,-5.80034 -8.69443,-11.46291 -7.68485,-15.32356 0.29939,-1.14488 -0.3309,-3.79722 -1.40065,-5.8941 C 396.87525,888.15748 396,885.76788 396,884.94412 c 0,-0.82375 -1.78812,-3.20417 -3.9736,-5.28983 -8.10499,-7.73481 -9.604,-9.27588 -13.0264,-13.39191 -5.16342,-6.20991 -6.88266,-7.9002 -8.03554,-7.9002 -0.56954,0 -1.90355,-2.025 -2.96446,-4.5 -1.06091,-2.475 -2.28242,-4.52055 -2.71446,-4.54567 -0.43205,-0.0251 -9.11054,-1.08613 -19.28554,-2.3578 -10.175,-1.27166 -18.62647,-2.21213 -18.78105,-2.08994 -0.15458,0.1222 -0.55476,2.53321 -0.88929,5.3578 -0.57039,4.81599 -0.78286,5.13561 -3.4139,5.13561 -1.54311,0 -15.31793,-1.81601 -30.61071,-4.03558 L 264.5,847.29103 l -17,-9.6506 c -9.35,-5.30783 -26.36859,-15.22335 -37.81909,-22.0345 l -20.81909,-12.38391 1.56318,-2.38572 c 1.86367,-2.84432 3.6653,-2.4159 -22.925,-5.45149 -27.46216,-3.13511 -26.74048,-2.99504 -26.19417,-5.08414 0.26582,-1.01649 -0.16305,-2.05346 -0.97873,-2.36646 -1.11426,-0.42758 -1.29731,-1.58788 -0.78719,-4.9896 0.40014,-2.6683 0.16969,-5.95484 -0.57899,-8.25745 -1.15598,-3.55525 -6.45345,-11.39103 -8.22452,-12.16533 -0.42816,-0.18719 -1.46285,-1.66377 -2.2993,-3.28128 -1.19554,-2.31192 -2.10005,-2.88078 -4.22896,-2.65966 -2.27309,0.2361 -2.67053,-0.0764 -2.47405,-1.94546 0.43037,-4.09382 -1.45154,-7.27325 -4.30505,-7.27325 -4.14546,0 -8.37365,-3.0712 -12.00996,-8.72359 -2.27511,-3.5365 -4.2581,-5.44317 -6.139765,-5.90347 -1.528623,-0.37393 -4.347651,-1.51081 -6.264506,-2.52641 -1.916855,-1.01559 -4.565253,-1.84653 -5.885329,-1.84653 -3.053334,0 -7.141241,-4.2276 -6.021925,-6.22771 0.445182,-0.79549 1.021062,-2.98219 1.279734,-4.85932 0.258673,-1.87713 0.769762,-4.38694 1.135753,-5.57735 0.493157,-1.60402 0.11413,-2.45943 -1.463981,-3.30401 -1.772313,-0.94851 -2.021007,-1.71753 -1.48295,-4.58562 0.435918,-2.32365 0.267586,-3.44599 -0.51684,-3.44599 -0.63982,0 -1.633923,-1.35 -2.209116,-3 -0.575193,-1.65 -1.370437,-3 -1.767209,-3 -0.396773,0 -1.341864,-2.27852 -2.100202,-5.06337 -0.758339,-2.78485 -1.739686,-5.28641 -2.180771,-5.55902 C 71.360888,683.46719 71,682.43139 71,681.43802 c 0,-0.99337 -0.917907,-2.97305 -2.039793,-4.3993 -1.342846,-1.70715 -1.883455,-3.54702 -1.58223,-5.38486 0.251659,-1.53542 0.494566,-3.35418 0.539792,-4.04168 0.04523,-0.6875 0.684999,-1.25 1.421716,-1.25 1.973763,0 3.532467,-4.11414 2.557341,-6.75 -0.484342,-1.30922 -1.671358,-2.25 -2.838922,-2.25 -2.927876,0 -5.306763,-5.37736 -5.443903,-12.30568 -0.06406,-3.23608 0.221589,-6.09271 0.634767,-6.34807 C 64.661946,638.45308 65,637.3707 65,636.30316 c 0,-1.06754 0.45,-1.94098 1,-1.94098 0.55,0 1.002235,1.2375 1.004967,2.75 0.0027,1.5125 1.118031,4.1 2.478441,5.75 l 2.473474,3 -0.619293,-3.5 c -0.340611,-1.925 -1.042368,-4.32604 -1.559461,-5.33565 -0.517093,-1.0096 -0.694542,-2.08127 -0.394332,-2.38148 0.30021,-0.30021 0.12242,-1.337 -0.395088,-2.30397 -0.730299,-1.36458 -0.498574,-1.87381 1.035184,-2.2749 2.364998,-0.61846 2.596881,-2.52856 0.408891,-3.36817 -1.923934,-0.73828 -3.266982,0.49551 -3.711732,3.40979 -0.560653,3.67374 -1.379538,3.56207 -4.764178,-0.64966 -1.784145,-2.22013 -3.675996,-3.76955 -4.204113,-3.44316 -0.528117,0.3264 -0.157858,-0.6311 0.822798,-2.12777 1.435001,-2.19009 1.552837,-3.08979 0.603727,-4.60956 C 58.530678,618.23907 58,616.52071 58,615.45908 c 0,-1.06163 -0.40048,-2.08023 -0.889956,-2.26357 -0.489475,-0.18333 -2.281459,-3.41539 -3.982185,-7.18236 -2.314075,-5.12548 -2.847236,-7.3068 -2.118673,-8.66814 0.535458,-1.00051 0.708656,-3.14362 0.384886,-4.76247 -0.361083,-1.80541 0.02887,-4.13756 1.008628,-6.0322 2.813978,-5.44164 1.71104,-14.21106 -2.559104,-20.34738 -1.017775,-1.46257 -1.661531,-3.26257 -1.43057,-4 0.230961,-0.73743 0.687941,-2.56575 1.015512,-4.06292 0.346735,-1.58478 2.083561,-3.73326 4.156851,-5.14209 1.958697,-1.33097 3.547932,-2.80601 3.531633,-3.27786 -0.07119,-2.06101 1.282849,-6.09607 3.012775,-8.97811 2.31054,-3.84934 3.558033,-11.83666 1.99917,-12.80009 -0.774479,-0.47866 -0.638415,-1.39875 0.45322,-3.0648 1.186832,-1.81133 1.303768,-2.85949 0.488885,-4.38211 -1.522593,-2.84499 -1.314669,-8.14207 0.452619,-11.5309 0.982443,-1.88386 1.287633,-4.09071 0.872058,-6.30591 -0.491801,-2.62153 -0.176736,-3.91407 1.365497,-5.60191 1.102644,-1.20674 2.744002,-3.65658 3.647461,-5.44408 0.903459,-1.7875 2.081097,-3.25 2.616973,-3.25 0.535876,0 0.97432,-0.49303 0.97432,-1.09563 0,-0.6026 0.867642,-2.31412 1.928092,-3.80338 1.060451,-1.48927 4.230521,-8.53374 7.044599,-15.65438 2.814079,-7.12063 6.439058,-15.76386 8.055508,-19.20718 1.616451,-3.44331 3.219385,-7.3777 3.562075,-8.74309 0.34269,-1.36538 0.930714,-2.29238 1.306721,-2.06 0.376006,0.23238 0.754952,-1.36559 0.842102,-3.55105 0.08715,-2.18546 0.856506,-5.37284 1.709679,-7.08306 C 98.301949,425.45418 99,423.28656 99,422.34747 c 0,-1.51356 0.482563,-1.5833 4.25,-0.6142 2.3375,0.60127 4.60986,1.66375 5.04969,2.36107 0.43983,0.69731 1.23114,1.26784 1.75847,1.26784 0.52734,0 0.41673,-0.86798 -0.24579,-1.92884 -1.37397,-2.20008 -4.98612,-4.07116 -7.85942,-4.07116 -1.07412,0 -1.95295,-0.47656 -1.95295,-1.05902 0,-0.58246 -0.408034,-0.80683 -0.906741,-0.49862 -0.498708,0.30822 -0.661276,-0.37826 -0.361263,-1.52551 0.414678,-1.58573 0.748332,-1.76591 1.391424,-0.75139 0.76861,1.21252 1.29231,0.46751 0.995,-1.41546 -0.0651,-0.4125 0.33158,-0.75 0.88158,-0.75 0.55,0 1,-0.9 1,-2 0,-1.1 0.45,-2 1,-2 0.55,0 1,-0.45 1,-1 0,-0.55 -0.9,-1 -2,-1 -2.8621,0 -2.46952,-2.46504 0.61652,-3.87113 2.55961,-1.16624 2.57485,-1.22954 0.70069,-2.91052 -1.6463,-1.47661 -1.92651,-3.1955 -1.9918,-12.21835 -0.0418,-5.775 -0.41463,-12.00644 -0.82853,-13.84765 -0.46235,-2.05674 -0.26181,-4.83459 0.52005,-7.20365 l 1.27259,-3.856 5.10524,4.30525 c 5.19644,4.38216 16.1392,10.00811 17.65006,9.07435 0.45774,-0.2829 1.25301,0.23747 1.76725,1.15637 0.6075,1.08555 1.67981,1.47596 3.06146,1.11465 1.2452,-0.32563 2.16101,-0.0768 2.2098,0.6003 0.0458,0.63601 0.20387,2.28073 0.3512,3.65495 0.14772,1.37792 -0.4503,3.06095 -1.33334,3.75245 -1.40321,1.09885 -1.35391,1.16987 0.39881,0.57438 1.1,-0.37374 2.33061,-1.16234 2.73469,-1.75246 0.41922,-0.61224 0.74126,-0.15277 0.75,1.07007 0.008,1.17866 -0.60453,2.38087 -1.36212,2.67158 -0.95944,0.36817 -1.28455,1.91792 -1.07135,5.10699 0.24662,3.68906 -0.0103,4.57842 -1.32257,4.57842 -1.12023,0 -1.30624,0.32241 -0.59587,1.03278 1.42409,1.42409 4.23998,0.17125 4.18861,-1.86358 -0.13182,-5.22184 1.32884,-9.84825 3.7842,-11.9859 1.98268,-1.72613 2.37212,-2.60559 1.52771,-3.45 -0.62331,-0.62331 -1.14019,-2.0558 -1.14861,-3.1833 -0.0126,-1.68995 -0.18557,-1.78654 -0.98469,-0.55 -0.82843,1.2819 -0.9716,1.24555 -0.98469,-0.25 -0.008,-0.9625 0.65969,-1.75 1.48469,-1.75 1.90045,0 1.85691,-0.9721 -0.15678,-3.5 -1.57165,-1.97298 -1.58598,-1.96958 -1.06145,0.25138 0.29244,1.23826 0.15477,2.01842 -0.30593,1.73369 -1.72597,-1.06671 -1.98703,1.55239 -0.50765,5.09304 1.90314,4.55486 1.9463,5.88386 0.13677,4.21132 -0.76727,-0.70919 -1.19888,-1.61371 -0.95913,-2.01006 0.23975,-0.39635 -0.24564,-2.03859 -1.07863,-3.64941 -1.33308,-2.5779 -1.33798,-3.07531 -0.0409,-4.15182 0.81051,-0.67266 1.47366,-2.06793 1.47366,-3.10059 0,-2.06473 1.48971,-2.51223 2.56598,-0.77079 0.47684,0.77153 0.94442,0.69581 1.54371,-0.25 1.38808,-2.19067 1.01612,-6.59451 -0.60969,-7.21839 -1.71593,-0.65846 -2.06853,-5.63837 -0.39922,-5.63837 0.60542,0 5.66792,1.32586 11.25,2.94636 29.52024,8.56985 82.77461,21.29445 121.48708,29.02813 99.55012,19.88735 207.8831,31.01947 301.91214,31.024 l 31.25,0.002 0,-4.5 c 0,-3.62488 0.34032,-4.49702 1.75,-4.48469 3.0912,0.027 3.93465,1.34794 5.30325,8.30519 1.35831,6.90497 3.20105,9.28662 6.27316,8.10774 0.80921,-0.31052 1.76836,-0.0839 2.13146,0.50359 0.36309,0.58749 2.16046,1.06817 3.99416,1.06817 2.04106,0 3.55721,0.58171 3.9096,1.5 0.73314,1.91055 3.69323,1.92574 6.19724,0.0318 2.35797,-1.78348 5.47427,-1.90176 10.49248,-0.39827 2.54227,0.76168 3.60995,1.58552 3.25468,2.51134 -0.36325,0.94662 -0.0204,1.18274 1.09562,0.7545 1.18363,-0.45421 1.91864,0.22098 2.70916,2.48866 1.12832,3.23669 2.88919,4.21914 2.88919,1.61197 0,-1.94068 3.38937,-1.94068 5,0 0.68469,0.825 1.84243,1.5 2.57275,1.5 0.73033,0 1.75599,0.765 2.27924,1.7 1.41091,2.52116 7.5314,2.2279 10.43512,-0.5 2.77189,-2.60406 4.54498,-2.80114 5.38998,-0.59911 0.51162,1.33326 1.64768,1.49023 6.7955,0.93895 4.62313,-0.4951 6.46416,-0.32098 7.30383,0.69076 0.81533,0.98242 2.71649,1.20032 6.94515,0.79602 4.6481,-0.4444 7.10168,-1.41088 12.16442,-4.79165 3.48805,-2.32923 7.04051,-4.23497 7.89435,-4.23497 0.85383,0 7.89005,2.95085 15.63604,6.55744 7.74599,3.60658 22.15246,10.27079 32.01438,14.80934 16.32137,7.51125 18.02674,8.536 19,11.41695 1.48986,4.41012 5.07612,7.85941 6.76471,6.50636 0.71749,-0.57492 2.26439,-1.33901 3.43756,-1.69796 1.81371,-0.55495 2.22613,-0.15644 2.75488,2.66206 1.06426,5.67302 3.11088,7.7014 7.115,7.05162 4.58472,-0.74399 6.7284,0.9556 5.44914,4.32031 -0.90083,2.36936 -0.57922,2.63389 7.8042,6.41911 4.80906,2.17136 9.41875,4.33597 10.24375,4.81024 0.84137,0.48369 4.52254,10.45609 8.38373,22.71177 l 6.88372,21.84944 -1.64654,7.04166 c -0.9056,3.87291 -1.64078,9.47891 -1.63373,12.45777 0.0134,5.64324 -0.15052,5.94718 -6.73718,12.49504 -2.57641,2.56124 -3.24683,4.04518 -3.23469,7.15985 0.0193,4.94688 0.51812,5.6703 5.73302,8.31414 2.95329,1.49725 5.08713,1.9444 7,1.46685 1.51342,-0.37782 7.02667,-4.37041 12.25167,-8.87242 8.14105,-7.01456 10.78743,-8.66221 18.5,-11.51817 6.49713,-2.40589 12.12859,-5.55497 20.25,-11.32369 11.22534,-7.97347 12.84324,-10.07055 9.75,-12.63771 -0.825,-0.68469 -1.5,-2.22878 -1.5,-3.43132 0,-1.20253 -0.66069,-3.05993 -1.4682,-4.12755 -2.21306,-2.92593 -1.87818,-3.93615 2.2182,-6.69145 2.81815,-1.89555 7.47738,-3.20554 18.75,-5.27175 8.25,-1.51217 15.96625,-3.10961 17.14723,-3.54985 1.51309,-0.56404 2.80433,-2.77503 4.37219,-7.48645 1.22373,-3.67731 3.06998,-7.53103 4.10277,-8.56382 1.0328,-1.0328 1.87781,-2.29515 1.87781,-2.80523 0,-0.51008 1.125,-1.81234 2.5,-2.89392 1.375,-1.08158 2.5,-2.39391 2.5,-2.9163 0,-1.84216 8.23612,-13.18766 10.85109,-14.9477 1.4569,-0.98059 15.69891,-5.05845 31.64895,-9.06191 29.4173,-7.38377 32.1829,-8.49051 31.1511,-12.46598 -0.4728,-1.82162 1.5879,-4.21446 2.6848,-3.11756 0.3585,0.35852 1.5821,-0.18999 2.719,-1.21891 1.7687,-1.60063 2.2006,-1.65991 2.9908,-0.41054 0.696,1.10025 0.9274,0.78229 0.939,-1.28976 0.01,-1.77788 0.5485,-2.75 1.5238,-2.75 1.2322,0 1.2909,-0.34831 0.3207,-1.9019 -0.9671,-1.54853 -0.8293,-2.43109 0.7415,-4.75 1.0611,-1.56646 1.9728,-3.2981 2.026,-3.8481 0.053,-0.55 0.4253,-1.75234 0.827,-2.67186 0.4017,-0.91952 0.3225,-2.49452 -0.1758,-3.5 -0.4984,-1.00548 -0.7531,-3.85314 -0.566,-6.32814 0.1871,-2.475 0.3606,-6.34717 0.3856,-8.60482 0.058,-5.26463 7.2273,-25.79837 9.1419,-26.18417 0.7887,-0.15894 1.9546,0.85356 2.5909,2.25 1.5213,3.33889 2.5098,3.21575 8.2988,-1.03376 5.2593,-3.86067 6.9422,-3.89632 12.1107,-0.25658 2.2077,1.55467 3.5511,4.56689 7.25,16.25566 2.4971,7.89105 4.5402,15.05746 4.5402,15.92534 0,1.9922 3.3927,3.85573 6.2893,3.45453 1.5214,-0.21072 2.2147,0.21747 2.2235,1.37322 0.01,0.92368 0.3445,2.01118 0.75,2.41667 0.4054,0.40548 0.7372,1.50714 0.7372,2.44813 0,2.41598 2.9033,4.73033 3.9036,3.11177 0.5544,-0.89709 1.4504,-0.66534 3.4212,0.88486 2.1199,1.66749 2.4681,2.4776 1.69,3.93155 -0.8336,1.55753 -0.6637,1.74855 1.1364,1.2778 1.5646,-0.40914 1.9514,-0.18795 1.4833,0.84816 -0.3483,0.7709 -0.911,2.18914 -1.2505,3.15164 -0.5657,1.60387 -1.6803,2.17691 -3.634,1.86842 -0.4125,-0.0651 -0.75,0.33158 -0.75,0.88158 0,0.55 -0.7231,1 -1.607,1 -1.0176,0 -1.3959,0.55016 -1.0314,1.5 0.5357,1.3959 -0.3734,1.90191 -2.9115,1.6206 -0.5774,-0.064 -1.6486,1.5395 -2.3804,3.56333 -1.1763,3.25285 -1.4733,3.4846 -2.5604,1.99788 -0.6764,-0.92499 -2.0374,-1.68181 -3.0245,-1.68181 -1.6848,0 -1.6919,0.11369 -0.1157,1.85538 0.9694,1.07115 1.4055,2.5684 1.0318,3.54227 -0.9201,2.39763 -2.9522,1.32741 -2.6393,-1.38997 0.2265,-1.96661 0.049,-2.09554 -1.3195,-0.95962 -0.8696,0.72173 -1.367,2.13116 -1.1052,3.13208 0.2617,1.00092 0.082,1.81986 -0.3991,1.81986 -0.4813,0 -0.616,0.675 -0.2994,1.5 0.3184,0.82969 0.029,1.5 -0.648,1.5 -0.7313,0 -1.0132,-0.80471 -0.7007,-2 0.3961,-1.51467 0.031,-2 -1.5058,-2 -1.7798,0 -1.8603,-0.20767 -0.6563,-1.69196 0.9325,-1.14966 0.9718,-1.45126 0.1224,-0.94098 -0.8133,0.48859 -1.25,0.12852 -1.25,-1.03055 0,-1.61386 -0.1263,-1.59588 -1.3425,0.19098 -0.7384,1.08488 -1.3443,4.25161 -1.3466,7.03717 -0.01,6.48301 -1.4458,9.39816 -3.7141,7.51566 -1.3911,-1.15448 -1.5968,-0.9981 -1.5968,1.2139 0,3.05217 -1.9947,3.9883 -3.8217,1.79355 -1.1367,-1.3654 -1.2463,-1.13802 -0.7828,1.62346 0.2964,1.76617 0.1037,3.48023 -0.4283,3.80901 -0.5319,0.32879 -0.9672,0.217 -0.9672,-0.24842 0,-0.46542 -0.8413,-0.90958 -1.8695,-0.98704 -2.3516,-0.17714 -4.5586,3.79118 -3.6683,6.59606 0.3984,1.25539 0.2375,2.11916 -0.3948,2.11916 -0.5871,0 -1.0674,1.035 -1.0674,2.3 0,1.265 -0.5625,2.86235 -1.25,3.54966 -0.6875,0.68731 -1.3702,2.23981 -1.5172,3.45 -1.3967,11.50112 -1.3798,12.4105 0.2619,14.0522 0.9166,0.91659 2.0751,1.41401 2.5745,1.10539 0.4993,-0.30862 0.6399,0.13725 0.3124,0.99081 -0.3276,0.85357 -0.9914,1.55194 -1.4752,1.55194 -0.4837,0 -1.5709,1.65458 -2.4158,3.67685 -1.6702,3.9972 -0.8321,5.48673 2.5843,4.59332 2.068,-0.54079 4.9251,1.80389 4.9251,4.04177 0,0.80014 0.9,1.69015 2,1.97781 1.1,0.28766 2,1.21025 2,2.05021 0,2.33691 5.1123,2.56213 7.676,0.33815 2.0129,-1.74621 4.324,-1.62379 4.324,0.22903 0,0.43401 -1.9125,1.6321 -4.25,2.66243 -2.3375,1.03032 -4.6099,2.44867 -5.0497,3.15187 -1.2418,1.98538 -3.7003,1.50604 -3.7003,-0.72144 0,-1.1 -0.45,-2 -1,-2 -0.55,0 -1,0.68912 -1,1.53138 0,0.84227 -0.675,1.79041 -1.5,2.10699 -0.825,0.31659 -1.5,1.20246 -1.5,1.96862 0,0.76615 -0.675,1.39301 -1.5,1.39301 -0.825,0 -1.5069,0.5625 -1.5153,1.25 -0.011,0.91536 -0.2465,0.88507 -0.879,-0.11315 -0.7291,-1.15087 -0.9618,-1.15087 -1.4945,0 -0.3469,0.74973 -0.402,-0.21185 -0.1224,-2.13685 0.3647,-2.51103 0.2306,-3.07616 -0.4749,-2 -0.5408,0.825 -0.9902,0.98564 -0.9986,0.35699 -0.01,-0.62866 -0.594,-1.36507 -1.3012,-1.63648 -0.9345,-0.35857 -1.1782,0.43006 -0.8916,2.88499 0.217,1.85815 0.7896,3.13426 1.2725,2.83579 0.4944,-0.30553 0.5226,0.41811 0.065,1.65599 -0.4473,1.20926 -2.3538,3.01281 -4.2365,4.00788 -5.076,2.68258 -18.5426,7.89484 -20.3978,7.89484 -2.1715,0 -13.6739,9.61089 -15.4211,12.88505 -0.7674,1.43822 -1.8924,2.94556 -2.5,3.34964 -0.6075,0.40408 -0.6792,0.74158 -0.1593,0.75 0.5199,0.008 2.1374,-1.12679 3.5944,-2.52269 1.457,-1.3959 3.7316,-2.73554 5.0547,-2.97698 1.3231,-0.24144 4.1883,-1.34934 6.367,-2.462 2.1788,-1.11266 4.7337,-2.02302 5.6775,-2.02302 0.9438,0 2.6486,-1.18569 3.7885,-2.63486 1.1399,-1.44917 2.0726,-2.0471 2.0726,-1.32874 0,0.71837 -0.7447,2.12905 -1.655,3.13486 -1.0627,1.17433 -1.2245,1.82874 -0.452,1.82874 0.6616,0 2.1939,-1.14943 3.405,-2.55428 1.2111,-1.40486 2.9441,-2.66208 3.8511,-2.79383 0.907,-0.13175 2.3695,-0.83743 3.25,-1.56817 0.8805,-0.73073 1.6009,-1.08726 1.6009,-0.79227 0,1.29806 -13.0285,10.58815 -18.2475,13.0115 -3.1611,1.46783 -7.5653,3.81635 -9.7872,5.21894 -2.2218,1.40259 -4.5233,2.2513 -5.1143,1.88602 -0.591,-0.36528 -1.424,-0.0988 -1.851,0.59209 -1.071,1.73287 -3.0553,0.3076 -2.3026,-1.65388 0.4954,-1.29091 0.2052,-1.2431 -1.5437,0.25426 -2.5823,2.21106 -2.6817,2.53946 -0.5173,1.70889 1.1343,-0.43526 1.4795,-0.19547 1.125,0.78138 -0.2813,0.77514 -0.9242,1.32799 -1.4288,1.22855 -0.5046,-0.0994 -0.9858,0.72658 -1.0693,1.83561 -0.1071,1.42156 0.2955,1.84472 1.3648,1.43439 0.8343,-0.32011 2.3937,-0.11272 3.4655,0.46088 1.7947,0.96052 1.8955,1.76809 1.2755,10.22221 -0.4404,6.00631 -1.2838,10.18339 -2.4396,12.08407 -0.9716,1.59763 -1.5523,3.46295 -1.2905,4.14517 0.2617,0.68221 -0.2249,1.50933 -1.0815,1.83804 -0.8566,0.32871 -1.5575,1.52624 -1.5575,2.66116 0,2.92697 -2.6901,8.99927 -3.9868,8.99927 -0.5989,0 -0.9594,-1.2375 -0.801,-2.75 0.2427,-2.31933 -0.1037,-2.76795 -2.2122,-2.86462 -5.68577,-0.26068 -12.00004,-4.47676 -12.00004,-8.01249 0,-1.47088 -0.42616,-2.22754 -1.04068,-1.84775 -1.42033,0.87781 -0.21057,4.44982 2.53157,7.47486 1.24641,1.375 3.05033,4.19423 4.0087,6.26497 0.95837,2.07073 3.03008,4.52556 4.60385,5.45518 2.1278,1.25691 2.7546,2.27852 2.4452,3.98503 -0.2559,1.41108 0.075,2.29482 0.8592,2.29482 0.8349,0 1.2989,1.55444 1.3435,4.5 0.037,2.475 -0.2315,4.5 -0.5975,4.5 -1.1416,0 -2.8539,5.20359 -4.1837,12.71407 -0.7025,3.96774 -1.64506,6.98684 -2.09445,6.7091 -0.86369,-0.53378 -1.64694,2.10386 -2.10148,7.07683 -0.15082,1.65 -0.72421,3 -1.27421,3 -1.69028,0 -1.73174,-9.46355 -0.0598,-13.64222 2.18871,-5.47012 2.04468,-7.21785 -0.53914,-6.54216 -1.69673,0.4437 -2.00198,0.17817 -1.59301,-1.38573 0.29218,-1.11729 -0.12636,-2.28844 -0.99068,-2.77214 -0.82313,-0.46065 -1.45628,-1.13459 -1.407,-1.49764 0.0493,-0.36306 0.0827,-1.44761 0.0743,-2.41011 -0.012,-1.36954 -0.20308,-1.45364 -0.87895,-0.38685 -0.72914,1.15087 -0.94806,1.15087 -1.40574,0 -0.39114,-0.98354 -0.56409,-0.89716 -0.62105,0.31021 -0.0719,1.52428 -0.3462,1.54003 -3.07895,0.17675 -3.15445,-1.57364 -3.73624,-2.77706 -1.89324,-3.91609 0.77153,-0.47683 0.69581,-0.94441 -0.25,-1.54371 -0.94391,-0.59809 -0.44389,-0.89671 1.64324,-0.98138 l 3,-0.12169 -2.73141,-1.08012 c -2.28409,-0.90324 -2.65023,-1.54088 -2.23573,-3.89362 0.27999,-1.58926 0.046,-2.8135 -0.53765,-2.8135 -0.60602,0 -0.78523,-1.13716 -0.43338,-2.75 0.40701,-1.86568 0.29711,-2.32107 -0.34178,-1.41615 -1.53983,2.18099 -2.31429,-1.26506 -1.08003,-4.80567 0.73079,-2.09633 1.71791,-3.03289 3.20781,-3.04349 1.79423,-0.0128 1.9027,-0.19174 0.65217,-1.07613 -1.12881,-0.79831 -1.19068,-1.18633 -0.25,-1.56802 0.6875,-0.27897 1.24311,-1.25721 1.23469,-2.17387 -0.0132,-1.44151 -0.14626,-1.46402 -0.98467,-0.16667 -0.7614,1.17818 -0.97266,1.20554 -0.98469,0.12756 -0.0125,-1.12446 -0.29457,-1.14069 -1.56082,-0.0898 -0.85003,0.70546 -1.33038,1.84328 -1.06744,2.52849 0.26294,0.6852 -0.39158,2.03285 -1.45449,2.99477 -1.06291,0.96192 -1.94624,1.3417 -1.96297,0.84396 -0.0167,-0.49775 -0.49108,-0.11393 -1.05412,0.85293 -0.56304,0.96686 -0.71801,2.25257 -0.34436,2.85713 0.46141,0.74659 -0.0826,0.87475 -1.69588,0.3995 L 971.5,631.177 l 2.29767,1.68268 c 1.74354,1.27686 2.03329,2.00124 1.20144,3.00356 -0.60824,0.73289 -0.7,1.56576 -0.20612,1.87099 0.48956,0.30257 0.80772,1.93514 0.70701,3.62794 -0.10071,1.6928 0.1956,3.31187 0.65845,3.59793 0.46285,0.28606 0.84155,1.3238 0.84155,2.3061 0,0.9823 0.90276,2.60298 2.00613,3.60152 2.56643,2.32258 2.02787,2.824 -1.61744,1.50588 l -2.88869,-1.04454 2.48506,1.94816 c 1.36678,1.07149 2.67229,1.76094 2.90112,1.5321 0.62479,-0.62479 3.04554,2.85103 3.08202,4.42529 0.0256,1.1068 -0.25854,1.13149 -1.4682,0.12756 -0.825,-0.68469 -1.5,-0.87479 -1.5,-0.42244 0,0.45234 -0.54,0.28244 -1.2,-0.37756 -0.66,-0.66 -2.07289,-1.2 -3.13976,-1.2 -1.06686,0 -2.55297,-0.7875 -3.30245,-1.75 -1.26571,-1.62544 -1.31554,-1.60765 -0.70011,0.25 0.6222,1.87811 0.51267,1.86372 -1.79719,-0.23608 -2.29397,-2.08537 -2.57188,-2.12395 -4.12338,-0.57246 -1.5515,1.5515 -1.71043,1.54163 -2.35819,-0.14638 -0.38201,-0.99551 -0.17354,-2.6443 0.46326,-3.66398 1.74941,-2.80125 1.38826,-4.65511 -0.40743,-2.09141 -0.86088,1.22908 -1.42338,3.46671 -1.25,4.9725 0.32336,2.80826 1.46722,3.17186 5.31525,1.68957 1.1,-0.42373 1.68393,-0.42015 1.29762,0.008 -1.21111,1.34215 2.02718,3.64257 5.43673,3.86216 1.79611,0.11568 4.37828,0.99057 5.73816,1.94422 1.35987,0.95364 3.21933,1.7339 4.13211,1.7339 1.26361,0 1.67294,0.96584 1.71547,4.0477 0.0512,3.71226 -0.12546,3.99183 -2.13211,3.37345 -1.20339,-0.37085 -4.43798,-2.2476 -7.18798,-4.17057 -4.73231,-3.30913 -4.81262,-3.33031 -1.5,-0.39559 1.925,1.7054 4.21275,3.78569 5.08389,4.62287 0.87114,0.83717 2.58519,1.52214 3.80901,1.52214 1.22878,0 1.94839,0.44777 1.6071,1 -0.33992,0.55 0.0354,1 0.83399,1 1.46551,0 3.13846,2.86089 2.21371,3.78563 -0.27465,0.27465 -1.25015,-0.12373 -2.16778,-0.88529 -1.4922,-1.23841 -1.59325,-1.14784 -0.95678,0.8575 0.98497,3.10336 -1.37261,2.94692 -5.59641,-0.37136 l -3.32673,-2.61353 3.26578,3.11353 c 1.79617,1.71243 3.95249,3.11352 4.79181,3.11352 0.83932,0 2.49807,0.90558 3.6861,2.01241 1.90938,1.77885 1.9879,2.18457 0.67657,3.4959 -1.31133,1.31134 -1.83844,1.16483 -4.54188,-1.2624 C 981.4074,682.94064 976,681.53098 976,683.42392 c 0,0.51604 1.35,0.93826 3,0.93826 1.93728,0 3,0.50749 3,1.43261 0,0.78794 0.9,1.71826 2,2.06739 1.1,0.34913 2,1.33455 2,2.18983 0,1.18753 0.31718,1.29182 1.34201,0.44129 0.7381,-0.61257 1.6381,-0.81767 2,-0.45578 0.36189,0.3619 0.65799,0.13299 0.65799,-0.50867 0,-0.65966 1.47453,-1.16667 3.39301,-1.16667 3.58412,0 4.60699,1.2393 4.60699,5.58179 0,1.33001 0.45,2.41821 1,2.41821 0.55,0 1,0.43588 1,0.96862 0,0.53273 -0.7875,0.6667 -1.75,0.29769 -1.04027,-0.39882 -0.22914,1.10638 2,3.71138 2.0625,2.41027 3.75,4.80116 3.75,5.31309 0,0.51193 -0.9009,-0.13156 -2.002,-1.43 -1.3747,-1.62111 -1.8111,-1.81248 -1.393,-0.61078 0.7539,2.16658 0.078,2.1954 -3.39018,0.14451 -2.36828,-1.40055 -2.4725,-1.40454 -0.81644,-0.0313 1.58149,1.31145 1.68312,1.83363 0.60882,3.12807 -0.81902,0.98686 -2.05904,1.31783 -3.39838,0.90703 -1.15985,-0.35574 -1.77522,-0.29481 -1.3675,0.13541 1.06927,1.12826 -1.16608,3.46624 -3.31407,3.46624 -1.00533,0 -2.28655,-0.7875 -2.84715,-1.75 -0.56061,-0.9625 -1.01702,-1.3 -1.01426,-0.75 0.003,0.55 0.55158,1.95243 1.2196,3.11652 l 1.21456,2.11652 5.86294,-1.92025 c 3.22462,-1.05613 6.06589,-1.7173 6.31393,-1.46925 0.24804,0.24804 0.53473,2.0702 0.63703,4.04924 0.2412,4.66341 1.6861,4.70472 1.6861,0.0482 0,-2.11803 0.4049,-3.30878 1,-2.94098 0.55,0.33992 1,-0.17995 1,-1.15527 0,-1.58834 0.1589,-1.61442 1.5233,-0.24996 2.16,2.15993 2.7409,7.86662 0.8738,8.5831 -0.8094,0.31058 -2.1069,2.08512 -2.8833,3.94342 -0.7765,1.85829 -1.9972,3.41314 -2.7128,3.45522 -0.7155,0.0421 -2.0885,0.22726 -3.051,0.41152 -0.9625,0.18425 -1.75,-0.10174 -1.75,-0.63553 0,-0.53379 -0.45,-0.69242 -1,-0.3525 -0.55,0.33992 -1.49804,0.31023 -2.10676,-0.066 -0.77153,-0.47683 -0.69581,-0.94441 0.25,-1.54371 1.0384,-0.65796 0.91876,-0.86328 -0.50987,-0.875 -1.35097,-0.0111 -1.72799,0.51486 -1.36476,1.90384 0.44957,1.71916 0.0188,1.88587 -4.13337,1.5998 -4.4243,-0.30482 -4.35082,-0.25168 1.61476,1.16754 6.35101,1.51093 7.62745,2.57095 4.52803,3.76032 -1.2969,0.49766 -1.40965,0.85381 -0.45672,1.44275 0.9697,0.59931 0.80043,1.34591 -0.72464,3.19621 -1.98352,2.40649 -2.00043,2.40834 -5.27818,0.57592 -3.26963,-1.82786 -3.27811,-1.82704 -1.49355,0.14487 2.28932,2.52967 6.38834,3.38301 7.1179,1.48181 0.29867,-0.77832 0.96856,-1.15215 1.48864,-0.83072 0.52008,0.32143 1.40957,-0.21255 1.97665,-1.18662 0.96172,-1.65194 1.0331,-1.63991 1.06146,0.17897 0.0236,1.51667 0.29708,1.68333 1.23041,0.75 2.3903,-2.39034 2.9478,-1.12462 0.90296,2.05 -1.15139,1.7875 -2.54558,3.1375 -3.0982,3 -0.55262,-0.1375 -1.00476,0.22656 -1.00476,0.80902 0,0.58246 -0.36824,0.83143 -0.8183,0.55328 -1.29226,-0.79867 -10.81086,3.97893 -11.49872,5.77146 -0.81324,2.11927 -2.85602,2.09451 -2.47682,-0.03 0.16161,-0.90544 -0.27223,-1.84413 -0.9641,-2.08598 -0.96227,-0.33637 -1.02218,0.18038 -0.25488,2.19853 0.84559,2.22406 0.63386,2.98328 -1.34863,4.83598 -3.10843,2.90492 -5.4346,7.57009 -6.21826,12.47081 -0.5147,3.21879 -0.9872,3.89143 -2.46253,3.50562 -2.63107,-0.68804 -8.52364,1.48513 -12.03233,4.4375 -3.38775,2.8506 -7.92543,11.07982 -7.92543,14.373 0,1.80279 -0.24556,1.95189 -1.5,0.9108 -0.86459,-0.71755 -1.5,-0.81474 -1.5,-0.22943 0,0.5585 0.66449,1.27044 1.47665,1.58209 2.3418,0.89864 -1.30769,6.63281 -4.22665,6.64102 -1.50294,0.004 -2.25,0.60777 -2.25,1.81776 0,0.99629 -0.95866,2.84044 -2.13035,4.0981 -1.6971,1.82162 -2.3134,2.0125 -3.03038,0.93856 -0.60382,-0.90443 -0.72181,-0.52534 -0.35852,1.1519 0.45668,2.10843 -0.16172,2.96857 -3.94822,5.49156 -3.07752,2.0506 -5.51869,2.91872 -7.76112,2.75998 -2.74542,-0.19434 -2.93201,-0.0858 -1.16051,0.67476 2.60809,1.11981 3.60484,3.45796 2.11096,4.95184 -1.62313,1.62313 -2.71025,1.37932 -2.80081,-0.62814 -0.0502,-1.11289 -0.26764,-1.27973 -0.59724,-0.45826 -0.40216,1.00229 -0.83776,1.02661 -1.94395,0.10855 -1.15354,-0.95735 -1.30542,-0.86988 -0.79576,0.45827 0.34643,0.90279 1.03173,1.64144 1.52289,1.64144 1.51992,0 0.98208,3.02859 -0.64899,3.65449 -0.8481,0.32545 -1.45394,1.32383 -1.34632,2.21862 0.28539,2.37258 -1.12486,5.12689 -2.62505,5.12689 -0.80706,0 -1.10123,0.75778 -0.77638,2 0.36373,1.39092 0.0307,2 -1.09362,2 -0.88915,0 -1.61663,0.47656 -1.61663,1.05902 0,0.58246 0.45,0.7809 1,0.44098 0.55,-0.33992 1,0.11008 1,1 0,0.88992 -0.40285,1.36906 -0.89522,1.06476 -0.49236,-0.3043 -1.14208,0.0901 -1.44382,0.87638 -0.30173,0.7863 -0.0958,1.58058 0.45761,1.76505 0.67041,0.22347 0.65992,1.24622 -0.0314,3.06461 -0.69208,1.8203 -0.70114,2.7292 -0.0272,2.7292 0.63929,0 0.59072,0.78425 -0.13223,2.1351 -0.91725,1.71389 -1.32122,1.86185 -2.04772,0.75 -0.61126,-0.93547 -0.83464,-0.16779 -0.68813,2.3649 0.11931,2.0625 0.57495,3.75 1.01254,3.75 0.43758,0 0.79561,0.92656 0.79561,2.05902 0,1.13246 -0.44485,1.78408 -0.98855,1.44806 -1.31096,-0.81022 10e-4,2.7301 1.41561,3.81905 0.74494,0.57358 0.68911,0.98175 -0.18263,1.33519 -0.91902,0.37261 -0.71799,1.19248 0.75,3.05873 1.10306,1.40232 2.00557,3.10209 2.00557,3.77727 0,2.4619 6.11661,15.97267 10.14226,22.40289 2.2725,3.62989 6.20765,9.05297 8.74478,12.0513 4.08615,4.82893 4.62572,6.02806 4.7247,10.5 0.0762,3.44115 0.504,4.95895 1.34375,4.76724 0.67761,-0.15469 1.02651,0.29531 0.77534,1 -0.25116,0.70469 1.50665,4.11531 3.90625,7.57916 2.39961,3.46385 4.36292,6.95135 4.36292,7.75 0,0.79865 0.41968,1.45209 0.93261,1.45209 0.51294,0 1.20747,0.86598 1.54339,1.92439 0.33593,1.05842 1.7708,3.63379 3.18861,5.72304 1.4178,2.08925 2.67913,4.26077 2.80295,4.8256 0.12382,0.56484 0.68894,2.15197 1.25583,3.52697 1.96197,4.75884 2.4015,22.21645 0.70332,27.93484 -0.85236,2.8702 -1.43813,6.19653 -1.30171,7.39185 0.38683,3.38944 -1.08569,6.67331 -2.99239,6.67331 -0.95293,0 -2.27431,0.5417 -2.93638,1.20376 -1.38709,1.3871 -10.31475,3.841 -11.44121,3.1448 -1.08853,-0.6727 -0.93134,-4.34856 0.18596,-4.34856 0.51754,0 1.2191,0.45 1.55902,0.99996 0.33992,0.55 1.32158,1 2.18146,1 1.27633,0 1.33483,-0.2754 0.31854,-1.49996 -0.68469,-0.825 -2.061,-1.5 -3.05846,-1.5 -1.07448,0 -2.72976,-1.63014 -4.0617,-4 -1.23647,-2.2 -2.61526,-4 -3.06398,-4 -0.44876,4e-5 -0.8159,-0.69469 -0.8159,-1.5438 0,-0.84911 -0.5625,-1.42969 -1.25,-1.29019 -0.6875,0.1395 -2.31973,-0.33723 -3.62717,-1.05941 -1.84367,-1.01837 -2.54501,-1.04149 -3.125,-0.10304 -0.53477,0.86527 -0.94271,0.89468 -1.43185,0.10324 -0.37621,-0.60872 -0.35402,-1.10676 0.0493,-1.10676 0.40333,0 -0.19653,-1.0125 -1.33302,-2.25 -1.1365,-1.2375 -2.38769,-3.76712 -2.78043,-5.62137 -0.44461,-2.09915 -1.4367,-3.56034 -2.62904,-3.87214 -1.23511,-0.32299 -1.60757,-0.90119 -1.04912,-1.62863 1.423,-1.85362 2.25419,-4.79403 1.16486,-4.12078 -0.5437,0.33602 -0.98855,1.20691 -0.98855,1.93531 0,0.72839 -0.90062,1.55986 -2.00138,1.84772 -1.10076,0.28785 -1.76702,0.14416 -1.48057,-0.31931 0.28644,-0.46348 0.11764,-2.63709 -0.37513,-4.83023 -0.6133,-2.7296 -0.54056,-4.36577 0.23057,-5.18647 0.87176,-0.92779 0.64742,-0.95305 -0.99201,-0.11169 -1.16518,0.59797 -2.40643,0.88181 -2.75833,0.63074 -0.3519,-0.25107 -0.18607,0.0798 0.36852,0.73518 1.38815,1.64055 1.26256,2.79167 -0.30458,2.79167 -1.7998,0 -6.05289,-4.68581 -8.54927,-9.41909 -1.13683,-2.15549 -2.55035,-4.21783 -3.14116,-4.58298 -0.70536,-0.43593 -0.14692,-2.45119 1.62636,-5.86912 2.0511,-3.95341 2.42117,-5.48462 1.53877,-6.36702 C 899.2794,938.24158 899,938.29612 899,939.35074 c 0,0.89102 -0.78628,0.54459 -2.19439,-0.96684 -1.61881,-1.73759 -2.31389,-1.99688 -2.65,-0.98856 -0.25058,0.75176 0.0619,1.53934 0.69439,1.75017 0.6325,0.21084 1.15,1.48239 1.15,2.82568 0,2.35639 -0.0991,2.3911 -2.81627,0.986 l -2.81628,-1.45635 0.96782,-7.31933 c 0.85262,-6.44813 0.98046,-13.13301 0.34078,-17.81933 -0.11261,-0.825 -1.32329,-3.20538 -2.6904,-5.28972 -1.88047,-2.86704 -3.02368,-3.69395 -4.6955,-3.39635 -1.42316,0.25334 -3.20312,-0.56845 -5,-2.30844 -1.53458,-1.486 -3.80265,-3.23598 -5.04015,-3.88884 -1.2375,-0.65286 -2.25,-1.63618 -2.25,-2.18517 0,-0.54898 -1.53886,-2.53701 -3.41969,-4.41784 -6.22949,-6.22949 -14.8135,-8.42256 -18.81011,-4.80567 -1.40441,1.27097 -1.52801,1.82849 -0.54383,2.45309 0.89801,0.56993 0.68379,0.82482 -0.72637,0.86427 -1.1,0.0308 -3.53566,1.36901 -5.41257,2.97385 -1.87691,1.60485 -3.80912,2.67282 -4.2938,2.37327 -0.48468,-0.29954 -1.42403,-0.11794 -2.08743,0.40357 -0.66341,0.52151 -2.4437,1.24383 -3.9562,1.60514 -2.02763,0.48438 -2.75,0.27999 -2.75,-0.77808 0,-0.78926 -1.9125,-2.92371 -4.25,-4.74321 -2.3375,-1.81951 -4.51624,-3.68107 -4.84164,-4.13682 -0.3254,-0.45574 -1.0004,-0.72127 -1.5,-0.59006 -0.4996,0.1312 -2.65082,-0.52004 -4.78048,-1.44722 -2.12967,-0.92717 -4.60467,-1.69266 -5.5,-1.70108 -0.89534,-0.008 -2.30288,-0.45153 -3.12788,-0.98469 -1.1647,-0.75269 -0.87209,-0.9728 1.30902,-0.98469 1.75506,-0.01 2.55842,-0.42078 2.14113,-1.09597 -0.97921,-1.5844 -8.17647,-0.477 -10.48643,1.61349 -1.08679,0.98353 -2.26932,1.4949 -2.62784,1.13638 -0.35852,-0.35852 -1.23605,-0.16702 -1.95007,0.42556 -1.3126,1.08936 -3.76672,0.34355 -3.00708,-0.91387 0.22624,-0.37449 -0.21642,-1.26114 -0.98369,-1.97033 -1.1527,-1.06543 -1.39504,-0.9888 -1.39504,0.44113 0,1.55157 -0.16282,1.52979 -1.57416,-0.21057 -0.86578,-1.06762 -1.29708,-1.39134 -0.95844,-0.71938 0.7917,1.57094 -2.26922,6.27825 -4.08241,6.27825 -1.70352,0 -1.78294,-1.20205 -0.18499,-2.8 0.66,-0.66 0.93,-1.2 0.6,-1.2 -0.33,0 -2.175,1.575 -4.1,3.5 -3.11641,3.11641 -6.67853,4.89231 -5.2826,2.63365 0.29449,-0.4765 -0.35395,-1.67124 -1.44098,-2.65499 C 770.88939,888.85709 770,887.05205 770,885.82964 c 0,-1.22242 -0.62004,-2.73715 -1.37786,-3.36609 -1.08935,-0.90408 -1.50527,-0.66798 -1.98634,1.12755 -0.33467,1.2491 -0.61464,3.48029 -0.62215,4.95821 -0.0127,2.51081 -0.24331,2.64986 -3.51365,2.11916 -2.35721,-0.38253 -3.5,-0.17947 -3.5,0.62188 0,0.65443 -0.48444,0.89046 -1.07653,0.52453 -1.97032,-1.21773 -8.37391,-1.1498 -12.29098,0.13037 -2.12714,0.69518 -4.40518,1.05765 -5.06231,0.80549 -0.65714,-0.25217 -1.78212,0.63893 -2.49995,1.98022 -1.30677,2.44171 -6.63058,4.15161 -7.67328,2.46449 -0.28324,-0.4583 -1.42057,-0.83327 -2.5274,-0.83327 -1.10682,0 -2.68741,-0.675 -3.51241,-1.5 -0.825,-0.825 -2.33721,-1.5 -3.36047,-1.5 -2.09994,0 -6.44367,5.46773 -5.52483,6.95444 1.19499,1.93353 7.42473,2.34335 9.99739,0.65768 1.35322,-0.88667 3.48874,-1.59781 4.74559,-1.58032 2.11283,0.0294 2.15319,0.132 0.53518,1.36025 -1.77987,1.35111 -2.52119,4.20261 -0.8191,3.15066 0.512,-0.31644 1.21356,-0.11799 1.55902,0.44098 1.07274,1.73573 2.51839,1.12466 3.51008,-1.48369 0.52277,-1.375 1.43819,-2.5 2.03427,-2.5 0.59607,0 0.80565,0.45 0.46573,1 -0.33992,0.55 -0.23962,1 0.22288,1 1.29941,0 1.39152,4.81126 0.10731,5.60495 -0.72479,0.44795 -0.86305,0.25723 -0.38006,-0.52427 0.56979,-0.92194 0.24552,-0.90756 -1.30001,0.0576 -1.13254,0.70728 -1.86162,1.48351 -1.62019,1.72495 0.24144,0.24144 -0.34152,1.02417 -1.29547,1.7394 -1.61227,1.20882 -1.5489,1.47524 0.89956,3.78181 1.44872,1.36476 4.24704,2.78398 6.2185,3.15383 3.67975,0.69033 6.95466,2.99757 7.39748,5.21169 0.1375,0.6875 -0.2,1.25 -0.75,1.25 -0.55,0 -1.01368,0.7875 -1.03041,1.75 -0.0275,1.58062 -0.13714,1.56619 -1.13317,-0.14918 -1.059,-1.8238 -1.1803,-1.80396 -3.05637,0.5 -1.07448,1.31955 -1.66874,1.84598 -1.32058,1.16985 1.42845,-2.77408 -4.28284,-8.00969 -8.08863,-7.41495 -0.62104,0.097 -1.34975,-0.66709 -1.61937,-1.69808 -0.27005,-1.03268 -1.67163,-2.10039 -3.12083,-2.37742 -2.14445,-0.40994 -2.65423,-0.11266 -2.75826,1.60845 -0.32778,5.42251 -0.70837,6.89225 -1.99111,7.68914 -1.2892,0.8009 -2.04507,0.12697 -2.02201,-1.80281 0.0153,-1.28066 -4.03896,-3.04077 -5.88949,-2.55684 -0.94928,0.24824 -2.24129,1.58234 -2.87112,2.96466 -0.62982,1.38233 -1.70873,2.29705 -2.39756,2.03272 -0.68884,-0.26433 -3.82838,-1.01537 -6.97676,-1.66897 -5.42263,-1.12573 -6.89489,-2.20509 -4.78579,-3.50859 0.5162,-0.31902 1.40251,0.21692 1.96959,1.19099 0.61054,1.04871 1.04345,1.24416 1.06146,0.47922 0.0619,-2.63083 -5.70056,-6.80888 -8.71959,-6.32207 -0.6875,0.11085 -1.25,-0.51973 -1.25,-1.4013 0,-0.88157 -0.45,-1.32474 -1,-0.98482 -0.55,0.33992 -1,-0.13598 -1,-1.05756 0,-1.25821 -0.63719,-1.55379 -2.55803,-1.1866 -1.88273,0.35991 -2.419,0.12669 -2.03139,-0.88342 0.645,-1.68084 -1.44017,-1.77169 -4.86353,-0.2119 -2.91606,1.32864 -3.26429,2.62702 -0.94343,3.51762 1.24206,0.47662 0.94731,0.89132 -1.30731,1.83932 -3.66832,1.54241 -9.94061,0.65014 -17.52361,-2.49284 -5.22135,-2.16413 -6.24037,-2.27182 -11.98952,-1.2671 -10.02197,1.75144 -14.07629,2.79773 -17.28318,4.46022 -1.65,0.85538 -4.89052,1.57781 -7.20116,1.60539 -4.02875,0.0481 -4.1637,-0.0484 -3.28821,-2.35108 1.15151,-3.02871 -0.76728,-4.52534 -2.5958,-2.02469 -0.70497,0.9641 -1.7617,1.4563 -2.3483,1.09376 C 614.41728,914.502 614,915.24533 614,916.80312 c 0,1.40746 0.525,2.55902 1.16667,2.55902 0.64166,0 0.87057,0.2961 0.50867,0.65799 -0.36189,0.3619 -0.199,1.21104 0.36199,1.88699 0.73759,0.88874 0.18146,1.93458 -2.00867,3.77745 -1.66576,1.40169 -3.02866,3.1741 -3.02866,3.93874 0,2.946 -10.0436,9.73887 -14.39942,9.73887 -1.46484,0 -2.92138,0.67242 -3.23675,1.49426 -0.31537,0.82184 -0.96695,1.25103 -1.44795,0.95375 -0.481,-0.29727 -1.78385,-0.0539 -2.89521,0.54093 -1.64626,0.88105 -2.02067,0.77715 -2.02067,-0.56075 0,-0.91963 -0.54999,-1.41731 -1.25,-1.13111 -0.6875,0.28108 -1.97948,0.8051 -2.87106,1.1645 -0.91595,0.36921 -2.29853,-0.024 -3.17857,-0.90407 -0.85663,-0.85663 -1.81466,-1.55751 -2.12894,-1.55751 -1.3445,0 -0.37955,2.10097 2.10698,4.5875 2.57133,2.57133 2.60367,2.73307 0.80887,4.04546 -2.45768,1.7971 -4.13419,1.72955 -4.87323,-0.19634 -0.85391,-2.22525 -2.53234,-0.84016 -1.90215,1.5697 0.28828,1.10238 -0.0703,2.72056 -0.79678,3.59596 -1.19733,1.44268 -1.38894,1.41879 -2.04774,-0.25533 -0.58512,-1.48689 -0.74051,-1.5326 -0.79709,-0.23446 -0.0479,1.09981 -0.84281,1.52768 -2.50005,1.34576 -1.33637,-0.14669 -2.65536,0.32119 -2.9311,1.03975 -0.72121,1.87945 0.44878,2.67392 2.01885,1.37088 1.89152,-1.56982 1.73826,1.0228 -0.21304,3.60404 -1.10835,1.46616 -2.4487,1.89744 -5.2182,1.67904 l -3.72675,-0.29389 2.7018,2.21845 c 2.61832,2.14991 2.65644,2.327 1.23373,5.73202 -0.80744,1.93247 -1.2399,4.4536 -0.96103,5.60252 0.27887,1.14892 0.24776,1.52364 -0.0691,0.83271 -0.3169,-0.69093 -0.98775,-1.00187 -1.49077,-0.69098 -0.50302,0.31088 -0.91459,0.0663 -0.91459,-0.54346 0,-0.75202 -0.54959,-0.80115 -1.70827,-0.15271 -1.242,0.69505 -2.05216,0.50391 -2.9682,-0.70031 -0.71328,-0.93769 -1.27372,-1.14496 -1.29173,-0.47774 -0.0577,2.13977 3.08192,4.42011 5.17229,3.75665 1.70776,-0.54202 1.89857,-0.29616 1.33178,1.71606 -0.36386,1.2918 -1.15685,3.35658 -1.76218,4.58841 -0.82732,1.68355 -0.76131,3.2678 0.26585,6.38012 0.75156,2.27724 1.29789,5.05082 1.21407,6.16352 -0.0838,1.1127 0.49983,2.95427 1.297,4.09239 0.79716,1.1381 1.44939,3.0942 1.44939,4.3468 0,1.2526 0.45,2.2775 1,2.2775 0.55,0 1.00689,0.7875 1.01531,1.75 0.0131,1.4955 0.15626,1.5319 0.98469,0.25 0.82843,-1.2819 0.9716,-1.2456 0.98469,0.25 0.009,1.0708 -0.73795,1.75 -1.92567,1.75 -1.06754,0 -2.2191,0.45 -2.55902,1 -0.90392,1.4626 -1.64482,1.2668 -5.51188,-1.4562 z m 381.22519,-91.54382 c -0.24217,-1.65 -0.83923,-3 -1.32681,-3 -0.48757,0 -0.8865,-0.9 -0.8865,-2 0,-1.1 -0.45,-2 -1,-2 -0.55,0 -1,0.1678 -1,0.37288 0,0.64635 4.07997,9.62712 4.3736,9.62712 0.15401,0 0.0819,-1.35 -0.16029,-3 z m -212.71331,-3 c 0.33992,-0.55 -0.11008,-1 -1,-1 -0.88992,0 -1.33992,0.45 -1,1 0.33992,0.55 0.78992,1 1,1 0.21008,0 0.66008,-0.45 1,-1 z m -82.53327,-7.37244 c -0.0328,-2.09566 -0.0627,-2.09226 -1.99464,0.2266 -1.07875,1.29479 -1.69872,2.77915 -1.3777,3.29856 0.91602,1.48216 3.40988,-1.12471 3.37234,-3.52516 z m 184.47597,-16.0458 c -2.09456,-1.53158 -3.04375,-1.3633 -1.98382,0.35171 0.36254,0.58659 1.3936,1.06653 2.29127,1.06653 1.36496,0 1.31464,-0.23214 -0.30745,-1.41824 z m -4.31514,-4.27372 c 1.18449,-1.46025 1.16702,-1.56638 -0.12756,-0.77496 -0.825,0.50435 -2.4,0.7956 -3.5,0.64721 -1.65135,-0.22276 -1.73851,-0.0903 -0.5,0.75965 2.04387,1.40269 2.53862,1.32695 4.12756,-0.6319 z M 972.25,682.6999 c -0.6875,-0.27741 -1.8125,-0.27741 -2.5,0 -0.6875,0.27741 -0.125,0.50439 1.25,0.50439 1.375,0 1.9375,-0.22698 1.25,-0.50439 z M 80.211998,631.52493 c -1.808401,-0.96438 -2.970901,-2.07051 -2.583333,-2.45808 0.927232,-0.92723 -0.624467,-0.78076 -3.128665,0.29533 -2,0.85943 -2,0.85943 0,0.96515 1.1,0.0582 3.125,0.74883 4.5,1.53485 1.375,0.78602 2.95,1.42621 3.5,1.42265 0.55,-0.004 -0.479601,-0.79552 -2.288002,-1.7599 z M 1013.5239,573.43754 c -0.3623,-1.14145 -1.036,-2.07536 -1.4972,-2.07536 -0.4612,0 -0.3231,1.09222 0.3069,2.42715 1.3497,2.86007 2.136,2.6277 1.1903,-0.35179 z M 125.74149,403.5626 c 1.32492,1.09959 1.45779,0.99791 0.92558,-0.70826 -0.34178,-1.09569 -0.16155,-2.66716 0.40051,-3.49216 0.84819,-1.245 0.99474,-1.15999 0.86202,0.5 -0.33591,4.20132 -0.0457,4.84123 1.58273,3.48977 1.15031,-0.95467 1.24069,-1.58244 0.37756,-2.62245 -0.62413,-0.75202 -0.74218,-1.37421 -0.26234,-1.38263 0.47985,-0.008 0.20897,-0.43489 -0.60195,-0.9477 -1.03877,-0.65691 -2.01051,-0.35693 -3.28895,1.01531 -0.99801,1.07124 -2.23291,1.9477 -2.74422,1.9477 -0.51131,0 -0.6362,0.76475 -0.27752,1.69944 0.43142,1.12426 0.79216,1.27936 1.06586,0.45826 0.3262,-0.97862 0.74097,-0.96958 1.96072,0.0427 z m -1.92966,-9.27072 c 0.7111,-1.13866 2.55267,-2.60116 4.09238,-3.25 2.24503,-0.94606 2.64467,-1.57579 2.01791,-3.1797 -0.42985,-1.1 -0.81318,-1.38614 -0.85184,-0.63587 -0.0386,0.75027 -1.98278,3.09432 -4.32028,5.20899 -2.3375,2.11467 -3.79575,3.86331 -3.24055,3.88587 0.5552,0.0226 1.59127,-0.89062 2.30238,-2.02929 z m 7.87128,-2.1172 c -0.31922,-0.79773 -0.55618,-0.56078 -0.60416,0.60417 -0.0434,1.05416 0.19292,1.64479 0.52522,1.3125 0.33229,-0.3323 0.36782,-1.19479 0.0789,-1.91667 z m 824.88118,608.89442 c 0.37553,-0.9863 0.93469,-1.54127 1.24258,-1.23338 0.30789,0.30788 6.4e-4,1.11478 -0.68278,1.79318 -0.98762,0.9802 -1.10248,0.8653 -0.5598,-0.5598 z m -394,-32.00005 c 0.37553,-0.98622 0.93469,-1.54122 1.24258,-1.23333 0.30789,0.30789 6.4e-4,1.11479 -0.68278,1.79313 -0.98762,0.98026 -1.10248,0.8654 -0.5598,-0.5598 z M 570,957.68801 c 0,-0.48474 0.84609,-1.6058 1.88021,-2.49123 2.5615,-2.19323 11.11979,-7.16152 11.11979,-6.4553 0,0.31314 -1.34393,1.26431 -2.9865,2.11372 -1.64258,0.84941 -4.56758,2.93258 -6.5,4.62927 -1.93243,1.69669 -3.5135,2.68829 -3.5135,2.20354 z m 48,-33.82583 c 1.86578,-1.925 3.61733,-3.5 3.89233,-3.5 0.275,0 -1.02655,1.575 -2.89233,3.5 -1.86578,1.925 -3.61733,3.5 -3.89233,3.5 -0.275,0 1.02655,-1.575 2.89233,-3.5 z m 321.07895,-6.08333 c 0.048,-1.16495 0.28494,-1.4019 0.60416,-0.60417 0.28887,0.72187 0.25335,1.58438 -0.0789,1.91667 -0.33229,0.33229 -0.56864,-0.25834 -0.52522,-1.3125 z M 682.573,916.84071 c -2.41922,-1.83025 -1.45854,-2.9176 1.84513,-2.08843 1.69132,0.42449 2.32461,1.11673 1.93958,2.12009 -0.70387,1.83426 -1.32521,1.82906 -3.78471,-0.0317 z M 113.47608,776.28682 c -0.96385,-3.03684 0.01,-3.34845 1.34004,-0.42887 0.62755,1.37733 0.73097,2.50423 0.22983,2.50423 -0.50115,0 -1.20759,-0.93391 -1.56987,-2.07536 z m 5.37655,-9.5942 c -0.90606,-0.24066 -1.88315,-1.33916 -2.17132,-2.4411 -0.66728,-2.5517 1.16084,-2.01272 3.10508,0.91547 0.80166,1.20735 1.29017,2.14299 1.08558,2.07919 -0.20458,-0.0638 -1.11329,-0.3129 -2.01934,-0.55356 z M 85.630771,741.84237 c -0.464918,-1.21156 -0.10978,-1.53789 1.413784,-1.29909 2.32986,0.36517 2.767218,2.1709 0.634093,2.61799 -0.784846,0.1645 -1.706391,-0.429 -2.047877,-1.3189 z m 6.82811,0.45328 c -1.140955,-1.84611 0.120777,-2.01526 3.639802,-0.48796 L 99.5,743.2839 96.309017,743.323 c -1.755041,0.0215 -3.487602,-0.4408 -3.850136,-1.02739 z M 1008.2862,712.11218 c 0.249,-0.6875 -0.276,-2.15 -1.1667,-3.25 -1.5963,-1.97129 -1.5882,-1.97353 0.5631,-0.15604 1.2004,1.01417 1.9397,2.47667 1.643,3.25 -0.6668,1.73767 -1.6668,1.8878 -1.0394,0.15604 z M 980,641.80316 c 0,-0.85746 0.45734,-1.27636 1.01631,-0.9309 0.55897,0.34546 0.75742,1.04702 0.44098,1.55902 C 980.60006,643.81832 980,643.55969 980,641.80316 z m 90.2853,-89.74417 c 1.4447,-2.17575 2.9168,-2.61417 3.4312,-1.02181 0.1465,0.45375 -0.8937,1.36356 -2.3117,2.02181 -2.5077,1.16412 -2.5383,1.13681 -1.1195,-1 z m 11.9253,-1.09185 c 1.3302,-1.43918 2.7894,-1.20165 2.7894,0.45406 0,0.51754 -0.9177,0.94098 -2.0394,0.94098 -1.6942,0 -1.8212,-0.23618 -0.75,-1.39504 z M 1079,534.86218 c -1.2917,-1.375 -1.8719,-2.5 -1.2893,-2.5 0.5826,0 1.7964,1.125 2.6973,2.5 0.901,1.375 1.4812,2.5 1.2894,2.5 -0.1918,0 -1.4057,-1.125 -2.6974,-2.5 z M 133.5427,370.43128 c -0.31643,-0.512 -0.19298,-1.1672 0.27432,-1.45601 0.46731,-0.28881 0.84965,0.13009 0.84965,0.9309 0,1.68617 -0.31534,1.83349 -1.12397,0.52511 z m -2.81353,-1.67327 C 130.32812,368.35697 130,367.33885 130,366.49551 c 0,-1.12559 0.29583,-1.2375 1.1125,-0.42083 0.61187,0.61187 0.94,1.63 0.72917,2.2625 -0.21084,0.6325 -0.71146,0.82188 -1.1125,0.42083 z m 2.9376,-2.12599 c -1.01868,-1.64826 1.29925,-2.72114 2.67036,-1.236 0.88398,0.95749 0.88357,1.10298 -0.002,0.60663 -0.64052,-0.35911 -1.34563,-0.10979 -1.56691,0.55405 -0.29348,0.88044 -0.59154,0.90082 -1.10172,0.0753 z"
       id="path5810"
       inkscape:connector-curvature="0" />
  </g>
</svg>
